<svg xmlns="http://www.w3.org/2000/svg" viewBox="0 0 760 500" role="img" aria-labelledby="t d"><title id="t">Ferramentas online conectadas</title><desc id="d">Ilustração abstrata de documentos, código, imagens e qualidade de software.</desc><defs><linearGradient id="g" x1="0" y1="0" x2="1" y2="1"><stop stop-color="#3157d5"/><stop offset=".55" stop-color="#6745ce"/><stop offset="1" stop-color="#0f9f8f"/></linearGradient><filter id="s"><feDropShadow dx="0" dy="12" stdDeviation="14" flood-opacity=".18"/></filter></defs><rect x="60" y="50" width="640" height="400" rx="45" fill="#f8faff" stroke="#dce4ff"/><circle cx="380" cy="250" r="110" fill="url(#g)" opacity=".12"/><g filter="url(#s)" font-family="system-ui,sans-serif"><rect x="270" y="160" width="220" height="180" rx="30" fill="white" stroke="#ccd7ff"/><rect x="300" y="194" width="58" height="58" rx="16" fill="url(#g)"/><text x="329" y="231" text-anchor="middle" font-weight="800" fill="white">UQ</text><text x="300" y="280" font-size="25" font-weight="800" fill="#17223f">127 ferramentas</text><text x="300" y="310" font-size="15" fill="#667085">PT · EN · ES</text><g fill="white" stroke="#dbe2f1"><rect x="88" y="90" width="150" height="98" rx="20"/><rect x="522" y="78" width="150" height="98" rx="20"/><rect x="75" y="310" width="170" height="105" rx="20"/><rect x="515" y="325" width="170" height="105" rx="20"/></g><g font-size="17" font-weight="750" fill="#3157d5"><text x="112" y="128">{ } JSON</text><text x="546" y="116">PDF</text><text x="100" y="350">QA · BDD</text><text x="540" y="365">IMG · SEO</text></g><g font-size="12" fill="#667085"><text x="112" y="157">formatar · validar</text><text x="546" y="145">juntar · converter</text><text x="100" y="380">pairwise · riscos</text><text x="540" y="395">otimizar · publicar</text></g></g><g stroke="url(#g)" stroke-width="3" stroke-dasharray="7 8" opacity=".65"><path d="M238 138 C280 145 272 190 300 206"/><path d="M522 128 C480 140 500 190 462 205"/><path d="M245 355 C285 340 270 300 302 286"/><path d="M515 370 C470 350 492 310 460 290"/></g></svg>